<mxfile host="www.draw.io" modified="2020-01-13T01:55:34.769Z" agent="Mozilla/5.0 (Windows NT 10.0; Win64; x64) AppleWebKit/537.36 (KHTML, like Gecko) Chrome/79.0.3945.117 Safari/537.36" etag="EyH8rI9yIqyGMZoQpEh7" version="12.5.1" type="github">
  <diagram id="FzvHW2se9k19n8oNCImI" name="Page-1">
    <mxGraphModel dx="1358" dy="753" grid="1" gridSize="10" guides="1" tooltips="1" connect="1" arrows="1" fold="1" page="1" pageScale="1" pageWidth="827" pageHeight="1169" math="0" shadow="0">
      <root>
        <mxCell id="0"/>
        <mxCell id="1" parent="0"/>
        <mxCell id="o_T73ZHFcsNydRM6HwRr-1" value="" style="whiteSpace=wrap;html=1;aspect=fixed;" vertex="1" parent="1">
          <mxGeometry x="260" y="120" width="260" height="260" as="geometry"/>
        </mxCell>
        <mxCell id="o_T73ZHFcsNydRM6HwRr-2" value="App" style="text;html=1;strokeColor=none;fillColor=none;align=center;verticalAlign=middle;whiteSpace=wrap;rounded=0;" vertex="1" parent="1">
          <mxGeometry x="360" y="80" width="40" height="20" as="geometry"/>
        </mxCell>
        <mxCell id="o_T73ZHFcsNydRM6HwRr-3" value="" style="shape=flexArrow;endArrow=classic;html=1;" edge="1" parent="1">
          <mxGeometry width="50" height="50" relative="1" as="geometry">
            <mxPoint x="360" y="220" as="sourcePoint"/>
            <mxPoint x="190" y="70" as="targetPoint"/>
          </mxGeometry>
        </mxCell>
        <mxCell id="o_T73ZHFcsNydRM6HwRr-4" value="&lt;div style=&quot;color: rgb(212 , 212 , 212) ; background-color: rgb(30 , 30 , 30) ; font-family: &amp;#34;consolas&amp;#34; , &amp;#34;courier new&amp;#34; , monospace ; font-size: 14px ; line-height: 19px ; white-space: pre&quot;&gt;&lt;span style=&quot;color: #9cdcfe&quot;&gt;translateService&lt;/span&gt;&lt;/div&gt;" style="ellipse;whiteSpace=wrap;html=1;" vertex="1" parent="1">
          <mxGeometry x="60" y="20" width="120" height="80" as="geometry"/>
        </mxCell>
        <mxCell id="o_T73ZHFcsNydRM6HwRr-6" value="&lt;div style=&quot;color: rgb(212 , 212 , 212) ; background-color: rgb(30 , 30 , 30) ; font-family: &amp;#34;consolas&amp;#34; , &amp;#34;courier new&amp;#34; , monospace ; font-size: 14px ; line-height: 19px ; white-space: pre&quot;&gt;&lt;span style=&quot;color: #9cdcfe&quot;&gt;titleService&lt;/span&gt;&lt;/div&gt;" style="ellipse;whiteSpace=wrap;html=1;" vertex="1" parent="1">
          <mxGeometry x="60" y="110" width="120" height="80" as="geometry"/>
        </mxCell>
        <mxCell id="o_T73ZHFcsNydRM6HwRr-7" value="" style="shape=flexArrow;endArrow=classic;html=1;" edge="1" parent="1">
          <mxGeometry width="50" height="50" relative="1" as="geometry">
            <mxPoint x="360" y="310" as="sourcePoint"/>
            <mxPoint x="190" y="160" as="targetPoint"/>
          </mxGeometry>
        </mxCell>
      </root>
    </mxGraphModel>
  </diagram>
</mxfile>
